/* XPM */
static char *result[] = {
/* columns rows colors chars-per-pixel */
"40 40 81 1 ",
"  c black",
". c #010102",
"X c #010203",
"o c #050201",
"O c #070202",
"+ c #0B0403",
"@ c #0C0403",
"# c #050708",
"$ c #05070A",
"% c #06080B",
"& c #07090C",
"* c #070A0D",
"= c #080B0E",
"- c #090C0F",
"; c #110604",
": c #1B0907",
"> c #1D0A08",
", c #1F0A08",
"< c #30100C",
"1 c #31100D",
"2 c #39130F",
"3 c #3E1410",
"4 c #17212A",
"5 c #1E2B37",
"6 c #1F2C38",
"7 c #202E3B",
"8 c #212E3C",
"9 c #22303D",
"0 c #23313F",
"q c #441612",
"w c #451712",
"e c #4C1914",
"r c #6F2F2C",
"t c #71302D",
"y c #233240",
"u c #253442",
"i c #253443",
"p c #263545",
"a c #263645",
"s c #273646",
"d c #273747",
"f c #283848",
"g c #293949",
"h c #293A4B",
"j c #2A3B4C",
"k c #2A3C4D",
"l c #2D3F51",
"z c #1F3F6E",
"x c #153A77",
"c c #203F6E",
"v c #32475B",
"b c #33475B",
"n c #344659",
"m c #33485D",
"M c #33495E",
"N c #34485D",
"B c #34495E",
"V c #35495E",
"C c #34495F",
"Z c #344A5E",
"A c #354A5F",
"S c #21406D",
"D c #21406E",
"F c #304761",
"G c #304861",
"H c #434351",
"J c #664954",
"K c #674A54",
"L c #863935",
"P c #B83C30",
"I c #C54133",
"U c #CF4537",
"Y c #D04537",
"T c #D44C3F",
"R c #DB4839",
"E c #E14A3A",
"W c #E24B3B",
"Q c #E74C3C",
"! c #D04B40",
"~ c #D34B40",
"^ c #FFFFFF",
/* pixels */
"^^^^^^^^^^^^^^^^^^^^^^^^^^^^^^^^^^^^^^^^",
"^^^^^^^^^^^^^^^^^^    ^^^^^^^^^^^^^^^^^^",
"^^^^^^^^^^^^^^^^^^    ^^^^^^^^^^^^^^^^^^",
"^^^^^^^^^^^^^^^^^^    ^^^^^^^^^^^^^^^^^^",
"^^^^^^^^^^^^^^^^^^    ^^^^^^^^^^^^^^^^^^",
"^^^^BBBBBBBBBBBBBB0000BBBBBBBBBBBBBB^^^^",
"^^^^BBBBBBBBBBBBBBBBBBBBBBBBBBBBBBBB^^^^",
"^^^^BBBBBBBBBBBBBBBBBBBBBBBBBBBBBBBB^^^^",
"^^^^BBBBBBBBBBBBBBBBBBBBBBBBBBBBBBBB^^^^",
"^^^^BBBBBBBBBBBBBBBBBBBBBBBBBBBBBBBB^^^^",
"^^^^BBBBv4uNBBBBBBBBBBBBBBBBNu4vBBBB^^^^",
"^^  BBBBa  =5nBBBBBBBBBBBBn5=  pBBBB  ^^",
"^^  BBBB0   ,YLHBBBBBBBBHLU:   9BBBB  ^^",
"^   BBBBj   qQQWtjBBBBjrWQQ3   gBBBB   ^",
"^   BBBBB-  +IQE2%BBBB$1RQPO  *NBBBB   ^",
"^   BBBBBfX  @w> 7BBBB6 ;<o  .aBBBBB   ^",
"^   BBBBBBf=   &yBBBBBB8#   *sBBBBBB   ^",
"^   BBBBBBBBkijmBBBBBBBBbd0hNBBBBBBB   ^",
"^   BBBBBBBBBBBBBBBBBBBBBBBBBBBBBBBB   ^",
"^^  BBBBBBBBBBBBBBBBBBBBBBBBBBBBBBBB  ^^",
"^^  BBBBBBBBBB!QQeeQQeeQQ!BBBBBBBBBB  ^^",
"^^^^BBBBBBBBBBQQQeeQQeeQQQBBBBBBBBBB^^^^",
"^^^^BBBBBBBBBBTQQeeQQeeQQ~BBBBBBBBBB^^^^",
"^^^^BBBBBBBBBBKTQeeQQeeQ~JBBBBBBBBBB^^^^",
"^^^^BBBBBBBBBBBBBBBBBBBBBBBBBBBBBBBB^^^^",
"^^^^BBBBBBBBBBBBBBBBBBBBBBBBBBBBBBBB^^^^",
"^^^^BBBBBBBBl00000000000000lBBBBBBBB^^^^",
"^^^^^^^^^^^^^              ^^^^^^^^^^^^^",
"^^^^^^^^^^^^^              ^^^^^^^^^^^^^",
"^^^^^^^VVAAAl00000000000000lAAAVV^^^^^^^",
"^^^^^VBBBBBBBBBBBBBBBBBBBBBBBBBBBBZ^^^^^",
"^^^^BBBBBBBBBBBBBBBBBBBBBBBBBBBBBBBB^^^^",
"^^^MBBBBBBBBBBBBBBBBBBBBBBBBBBBBBBBBC^^^",
"^^^BBBBBBGDzzzzzzzzzzzzzzzzzzDFBBBBBB^^^",
"^^^BBBBBBDxxxxxxxxxxxxxxxxxxxxSBBBBBB^^^",
"^^^BBBBBBzxxxxxxxxxxxxxxxxxxxxzBBBBBB^^^",
"^^^BBBBBBzxxxxxxxxxxxxxxxxxxxxzBBBBBB^^^",
"^^^BBBBBBzxxxxxxxxxxxxxxxxxxxxzBBBBBB^^^",
"^^^BBBBBBzxxxxxxxxxxxxxxxxxxxxzBBBBBB^^^",
"^^^^^^^^^^cccccccccccccccccccc^^^^^^^^^^"
};
