/* XPM */
static char *result[] = {
/* columns rows colors chars-per-pixel */
"40 40 170 2 ",
"   c #020201",
".  c #090703",
"X  c #0D0A05",
"o  c #100C06",
"O  c #110E09",
"+  c #151007",
"@  c #1A1207",
"#  c #12110E",
"$  c #1C1409",
"%  c #1F1A0E",
"&  c #151311",
"*  c #1C1A17",
"=  c #1E1C18",
"-  c #20170B",
";  c #231A0C",
":  c #2B1D0C",
">  c #261B11",
",  c #2B1D12",
"<  c #301F15",
"1  c #2C200C",
"2  c #34240E",
"3  c #3C290F",
"4  c #262011",
"5  c #2E2111",
"6  c #352515",
"7  c #3D2B12",
"8  c #3A261B",
"9  c #3D2A1B",
"0  c #382615",
"q  c #2C2A26",
"w  c #2A2723",
"e  c #422D11",
"r  c #442E1A",
"t  c #453214",
"y  c #4A3313",
"u  c #4A3917",
"i  c #4B351C",
"p  c #553B15",
"a  c #5B3E17",
"s  c #533C1B",
"d  c #462D20",
"f  c #4A2F21",
"g  c #4C3122",
"h  c #503323",
"j  c #573F21",
"k  c #5F4117",
"l  c #5E4119",
"z  c #55411C",
"x  c #634419",
"c  c #64491E",
"v  c #6C4B1B",
"b  c #68471A",
"n  c #724E1C",
"m  c #76511D",
"M  c #7A541E",
"N  c #594022",
"B  c #634E20",
"V  c #645020",
"C  c #6C5123",
"Z  c #725625",
"A  c #775927",
"S  c #79512F",
"D  c #7E5D2B",
"F  c #785423",
"G  c #714732",
"H  c #734933",
"J  c #7A5330",
"K  c #7A6127",
"L  c #7E6428",
"P  c #4A4847",
"I  c #4C4B49",
"U  c #494746",
"Y  c #52514F",
"T  c #545352",
"R  c #656563",
"E  c #686766",
"W  c #696867",
"Q  c #6B6B6A",
"!  c #777777",
"~  c #797979",
"^  c #835B22",
"/  c #885D22",
"(  c #805D2E",
")  c #805733",
"_  c #89563C",
"`  c #8C593E",
"'  c #835833",
"]  c #816629",
"[  c #926424",
"{  c #976825",
"}  c #9C6B27",
"|  c #946C2D",
" . c #9F6D28",
".. c #8F6038",
"X. c #94643A",
"o. c #99673C",
"O. c #9A683C",
"+. c #A06E27",
"@. c #A16E28",
"#. c #A4722A",
"$. c #AB762A",
"%. c #AE792C",
"&. c #B37B2D",
"*. c #A57730",
"=. c #A17F33",
"-. c #976043",
";. c #9B6244",
":. c #AF7645",
">. c #B17745",
",. c #B27846",
"<. c #BD822F",
"1. c #AA8336",
"2. c #AD8238",
"3. c #BF8330",
"4. c #B48A3B",
"5. c #BC8C3D",
"6. c #B79039",
"7. c #C28631",
"8. c #C68932",
"9. c #CA8B33",
"0. c #C48F39",
"q. c #CF9035",
"w. c #C1913E",
"e. c #D29135",
"r. c #DB9636",
"t. c #DF9937",
"y. c #DF9A38",
"u. c #E29D39",
"i. c #EDA43B",
"p. c #EEAA3F",
"a. c #F0A53B",
"s. c #F5AA3E",
"d. c #FDAE3F",
"f. c #AD8B42",
"g. c #CD9944",
"h. c #C59E4A",
"j. c #D29D46",
"k. c #D9A544",
"l. c #DFA848",
"z. c #D7A251",
"x. c #DBA65F",
"c. c #E2A841",
"v. c #E9AF4B",
"b. c #F3AC40",
"n. c #FBAD40",
"m. c #EBB14C",
"M. c #F7B247",
"N. c #FFB242",
"B. c #F2B64E",
"V. c #FCB649",
"C. c #F7BA4C",
"Z. c #FCBB4B",
"A. c #FEBF51",
"S. c #FFC052",
"D. c #FFC65A",
"F. c #FFCE62",
"G. c #FFD165",
"H. c #FFD469",
"J. c #FFD96F",
"K. c #FFDE74",
"L. c #868686",
"P. c #888888",
"I. c #A5A5A5",
"U. c #A9A9A9",
"Y. c #C7C7C7",
"T. c #CACACA",
"R. c #E3E3E3",
"E. c #ECECEC",
"W. c #F5F5F5",
"Q. c #FFFFFF",
/* pixels */
"Q.Q.Q.Q.Q.Q.Q.Q.Q.Q.Q.Q.Q.Q.Y.L.Y w #   . # q T L.Y.Q.Q.Q.Q.Q.Q.Q.Q.Q.Q.Q.Q.Q.Q.",
"Q.Q.Q.Q.Q.Q.Q.Q.Q.Q.Q.R.! &   ; k m { e 7 1.L V 4   * ~ R.Q.Q.Q.Q.Q.Q.Q.Q.Q.Q.Q.",
"Q.Q.Q.Q.Q.Q.Q.Q.Q.E.R .   m 8.t.3. .^ : 2  .3.y.S.k.K   . W E.Q.Q.Q.Q.Q.Q.Q.Q.Q.",
"Q.Q.Q.Q.Q.Q.Q.Q.I.# ; 1.$ p k -   X ; 5 5 > .   ; m x @ } % # I.Q.Q.Q.Q.Q.Q.Q.Q.",
"Q.Q.Q.Q.Q.Q.Q.R   ] C.8.;   6 ( g.S.S.S.S.S.S.g.D 6   $ @.t.m   Q Q.Q.Q.Q.Q.Q.Q.",
"Q.Q.Q.Q.Q.W.U X 4.p.p   s j.S.S.S.S.S.S.S.S.S.S.S.S.j.i   y 9.$.o P W.Q.Q.Q.Q.Q.",
"Q.Q.Q.Q.Q.U   L e.- : f.C.A.S.S.S.S.S.S.S.S.S.S.S.S.S.A.5.- $ %.m   P Q.Q.Q.Q.Q.",
"Q.Q.Q.Q.R o m   . 9 A .   C A.S.S.m.2.| | 1.v.S.S.A.C     A i .   L O Q Q.Q.Q.Q.",
"Q.Q.Q.I.  $.%.. j 5.  S ) . 2.g.y   o : 1 o   u g.2.. J J   g.j X e.4.  U.Q.Q.Q.",
"Q.Q.E.O m 8.$ i 5.s $ ,.,.: 5   p 8.d.F.K.K.h.z   1 , ,.,.$ s 5.i ; p.L & E.Q.Q.",
"Q.Q.R $ r.t > Z   - 5 ,.O.  . $.d.N.d.n.Z.A.N.H.f..   o.,.5 $   Z ; p C.; Q Q.Q.",
"Q.R.. }  .  5.  J ,.,.,...  %.d.s.a.a.a.a.i.a.s.N.$.  ..,.,.,.J   5.  9.1.  R.Q.",
"Q.!   + @ i m.  ' ,.o.:.r y d.a.a.a.a.a.a.a.a.a.a.d.y r :.o.,.'   C.g 7 c.o ~ Q.",
"Q.* L v   j.S.c . 5   6 X $.a.a.a.a.a.a.a.a.a.a.a.a.#.X 6   5 . c S.g.    X = Q.",
"Y.  k.b 0 S.F.F.*.m #.$   9.a.a.a.a.a.a.a.a.a.a.a.a.9.  @ #.m *.G.F.Z.6 t 9.  T.",
"L.; Z.@ D G.K.K.H.Z.S.0.  q.a.a.a.a.a.a.a.a.a.a.a.a.q.  0.S.A.H.K.K.G.D $ u.- P.",
"T V i.$ g.K.K.K.K.A.S.l.  q.$.e 3 e ^ a.a./ e 3 e $.q.  l.A.S.J.K.K.K.g.  <.x T ",
"w ] N.x.Z.K.K.K.K.D.S.l.  7.  < 9 9   &.&.  8 9 <   <.  l.A.S.K.K.K.K.V.. { ^ q ",
"# =.} 9 M.H.K.K.K.F.A.c.  $.  G ;.` X +.+.X ` ;.H   &.  l.S.G.K.K.K.H.M.- ^ { # ",
"  u 2 , b.D.K.K.K.K.A.l.  ; y o <   : } } :   < o y -   l.S.K.K.K.K.D.s.6 1 e   ",
". e 1 : a.V.D.F.F.D.A.c.  2 u.{ b $.%.    %.$.b [ i.2   l.S.D.G.G.S.V.i.5 2 u . ",
"# | ^ @ a.b.A.A.A.A.A.m.  @.u.s.d.e.  f r . e.n.s.u.@.  m.S.S.S.S.S.b.a.* { 1.& ",
"w M } . i.a.V.A.S.A.D.A.B     . [ / X < < . / [ .     B S.S.S.S.S.V.a.p.. <.] q ",
"Y l 3.  8.i.b.A.S.A.A.A.k.. f f   %.p p l p &.  f f . k.S.A.S.S.Z.a.a.p.z.s.B T ",
"L.- t.$ ^ a.a.s.S.S.S.k.@ . , ;., x n.n.d.d.a , ;.,   @ l.A.S.A.s.a.a.} ^ Z.4 L.",
"T.  9.t 6 a.a.i.#.^ 1.+ 6 X.. g G             G h X X.6 @ =.D #.a.a.a.6 v k.  T.",
"Q.* X     8.a.x . ,   0 :.,.r . _ f > < < > h `   r ,.:.6   , . x a.9.  v L = Q.",
"Q.! o c.3 s u.  ) ,.O.,.,.,.r   f ;.;.;.;.;.;.f   r ,.,.:.o.,.'   u.u $ +   ~ Q.",
"Q.R.  1.8.  &.  J ,.,.,.>.,.n     o @ + O @ o     n ,.,.,.,.,.J   %.  @.} . R.Q.",
"Q.Q.W % C.p - v   $ < ,.>.6 {   m } [ [ [ [ { m   { 2 ,.,., -   v - t r.$ Q Q.Q.",
"Q.Q.E.# L p.; y #.y $ ,.>.: m ^ o &.t.t.t.t.&.o M m , ,.,.@ y #.r $ 8.m & E.Q.Q.",
"Q.Q.Q.I.  4.e.X a %.  S ) . @.a.p   : 3 3 1   a a.@.. ) S   &.s   $.$.. U.Q.Q.Q.",
"Q.Q.Q.Q.R X L     t b     k i.a.a.<.^ n v ^ <.a.a.i.a     b t .   m X Q Q.Q.Q.Q.",
"Q.Q.Q.Q.Q.U   m &.$ - &.r.i.a.a.a.a.i.a.a.a.a.a.a.a.i.r.%.$ - e.]   P Q.Q.Q.Q.Q.",
"Q.Q.Q.Q.Q.W.P o $.9.y   y q.a.a.a.a.p.i.a.a.a.a.a.a.8.e   l b.6.X P W.Q.Q.Q.Q.Q.",
"Q.Q.Q.Q.Q.Q.Q.E   m r.+.-   1 | a.a.a.p.a.a.i.8.F 1   ; 8.C.L   Q Q.Q.Q.Q.Q.Q.Q.",
"Q.Q.Q.Q.Q.Q.Q.Q.U.# % } $ x v ^ z.. % 5 : O     ; x p - 1.; & U.Q.Q.Q.Q.Q.Q.Q.Q.",
"Q.Q.Q.Q.Q.Q.Q.Q.Q.E.W .   D k.Z.M.<.} 2 : ^ +.7.u.8.n   . Q E.Q.Q.Q.Q.Q.Q.Q.Q.Q.",
"Q.Q.Q.Q.Q.Q.Q.Q.Q.Q.Q.R.! *   4 N ] 1.t e { m l -   * ~ R.Q.Q.Q.Q.Q.Q.Q.Q.Q.Q.Q.",
"Q.Q.Q.Q.Q.Q.Q.Q.Q.Q.Q.Q.Q.Q.T.L.T q # . . O q T P.T.Q.Q.Q.Q.Q.Q.Q.Q.Q.Q.Q.Q.Q.Q."
};
