/* XPM */
static char *result[] = {
/* columns rows colors chars-per-pixel */
"40 40 12 1 ",
"  c #8094A4",
". c #8194A4",
"X c #8295A6",
"o c #8296A6",
"O c #8598AA",
"+ c #8FA1B3",
"@ c #8FA2B4",
"# c #90A3B4",
"$ c #91A3B4",
"% c #94A6B8",
"& c #B0C1D4",
"* c None",
/* pixels */
"****************************************",
"****************************************",
"** @@@@@@X############# #############.**",
"**@&&&&&&%&&&&&&&&&&&&&$&&&&&&&&&&&&&#**",
"**@&&&&&&%&&&&&&&&&&&&&$&&&&&&&&&&&&&#**",
"**@&&&&&&%&&&&&&&&&&&&&$&&&&&&&&&&&&&#**",
"**@&&&&&&%&&&&&&&&&&&&&$&&&&&&&&&&&&&#**",
"**@&&&&&&%&&&&&&&&&&&&&$&&&&&&&&&&&&&#**",
"**@&&&&&&%&&&&&&&&&&&&&$&&&&&&&&&&&&&#**",
"**X%%%%%%$$$$$$$.$$$$$$+$$$$$$o%%%%%%O**",
"**#&&&&&&&&&&&&&$&&&&&&&&&&&&&%&&&&&&@**",
"**#&&&&&&&&&&&&&$&&&&&&&&&&&&&%&&&&&&@**",
"**#&&&&&&&&&&&&&$&&&&&&&&&&&&&%&&&&&&@**",
"**#&&&&&&&&&&&&&$&&&&&&&&&&&&&%&&&&&&@**",
"**#&&&&&&&&&&&&&$&&&&&&&&&&&&&%&&&&&&@**",
"**#&&&&&&&&&&&&&$&&&&&&&&&&&&&%&&&&&&@**",
"**O%%%%%%o$$$$$$+$$$$$$.$$$$$$$%%%%%%X**",
"**@&&&&&&%&&&&&&&&&&&&&$&&&&&&&&&&&&&#**",
"**@&&&&&&%&&&&&&&&&&&&&$&&&&&&&&&&&&&#**",
"**@&&&&&&%&&&&&&&&&&&&&$&&&&&&&&&&&&&#**",
"**@&&&&&&%&&&&&&&&&&&&&$&&&&&&&&&&&&&#**",
"**@&&&&&&%&&&&&&&&&&&&&$&&&&&&&&&&&&&#**",
"**@&&&&&&%&&&&&&&&&&&&&$&&&&&&&&&&&&&#**",
"**X%%%%%%$$$$$$$.$$$$$$+$$$$$$o%%%%%%O**",
"**#&&&&&&&&&&&&&$&&&&&&&&&&&&&%&&&&&&@**",
"**#&&&&&&&&&&&&&$&&&&&&&&&&&&&%&&&&&&@**",
"**#&&&&&&&&&&&&&$&&&&&&&&&&&&&%&&&&&&@**",
"**#&&&&&&&&&&&&&$&&&&&&&&&&&&&%&&&&&&@**",
"**#&&&&&&&&&&&&&$&&&&&&&&&&&&&%&&&&&&@**",
"**#&&&&&&&&&&&&&$&&&&&&&&&&&&&%&&&&&&@**",
"**O%%%%%%o$$$$$$+$$$$$$.$$$$$$$%%%%%%X**",
"**@&&&&&&%&&&&&&&&&&&&&$&&&&&&&&&&&&&#**",
"**@&&&&&&%&&&&&&&&&&&&&$&&&&&&&&&&&&&#**",
"**@&&&&&&%&&&&&&&&&&&&&$&&&&&&&&&&&&&#**",
"**@&&&&&&%&&&&&&&&&&&&&$&&&&&&&&&&&&&#**",
"**@&&&&&&%&&&&&&&&&&&&&$&&&&&&&&&&&&&#**",
"**@&&&&&&%&&&&&&&&&&&&&$&&&&&&&&&&&&&#**",
"** @@@@@@X############# #############.**",
"****************************************",
"****************************************"
};
